<?xml version="1.0" encoding="UTF-8"?>
<svg width="100" height="100" version="1.0" viewBox="0 0 100 100" xml:space="preserve" xmlns="http://www.w3.org/2000/svg">
<rect width="100" height="100" ry="0" fill="#fff"/><g id="a" transform="translate(0 11.1)">
	<rect width="100" height="31.3" fill="none"/>
</g>

<path d="m0.125 72.8c12.1-0.323 24 0.693 29.8 1.2 1.4 0.118 2.77 0.225 4.08 0.309l0.825 0.0405 2.42 0.144c1.05 0.0515 2.04 0.081 2.95 0.103h0.269c0.801 0.0074 2.92 0.081 4.18 0.0111 0.792-0.0405 1.8-0.129 2.86-0.225l1.06-0.092c0.158-0.0147 0.23 0.081 0.245 0.169 0.0017 0.0111 0.0036 0.0221 0.0036 0.0332 0 0.0773-0.0423 0.162-0.149 0.188-3.66 0.906-7.32 1.65-11.8 2.14-5.85 0.622-11.6 0.729-19 0.563l-0.357-0.0479c-0.928-0.0552-1.02-0.0957-2.53-0.405-0.0497-0.0074 0.0497 0.0147-0.149-0.0294-0.197-0.0442-0.219-0.306 0.0368-0.313h0.353c5.93 0.0221 7.5-0.0589 12.5-0.287l2.24-0.114 1.87-0.166c0.184-0.0147 0.265-0.28 0.265-0.361-0.0036-0.0884-0.14-0.32-0.442-0.328-0.07 0.0038-1.15-0.0552-1.81-0.0847-0.692-0.0294-2.82 0.0884-2.82 0.0884-1.15 0-8.59 0.335-16.2 0.335-0.33 0-1.84-0.121-2.14-0.191-0.306-0.07-0.803-0.0884-0.803-0.0884-0.162-0.0368-0.147-0.254 0.0294-0.261 0 0 2.9-0.269 5.56-0.306 0.411-0.0074 2.47-0.0736 3.04-0.11 0.44-0.0294 0.873-0.114 0.873-0.42 0-0.383-2.57-0.383-4.07-0.383-3.39 0-10.4 0.648-11.3 0.648-0.307 0-1.05-0.0333-1.99-0.0757m58-1.35c-0.035-0.081-0.168-0.0921-0.342-0.0221l-1.18 0.423c-6.26 2.24-11.5 3.53-17.5 4.3-5.95 0.744-11.5 0.788-18 0.626-0.0258 0-0.0552 0-0.081-0.0038-0.3-0.0074-0.333 0.258 0.0294 0.372 0.0294 0.0111 0.0663 0.0221 0.101 0.0331 1.42 0.423 3.44 0.795 4.7 0.865 7.48 0.21 12.5-0.136 17.9-1.24 3.61-0.762 7.71-1.84 13.3-4.58l0.906-0.449c0.173-0.0884 0.25-0.239 0.21-0.328m-12.5 6.31c-5.33 1.25-10.2 1.68-17.4 1.51l-0.291-0.0074c-0.11 0-0.202 0.0552-0.217 0.136-0.0221 0.121 0.134 0.32 0.639 0.512l0.166 0.07 0.116 0.0479c1.46 0.563 3.46 1.15 4.66 1.19 6.87-0.0258 11.6-0.777 16.8-2.68 2.76-1.05 5.21-2.26 7.94-3.93 2.55-1.58 4.88-3.25 7.58-5.4l0.503-0.403c0.138-0.11 0.191-0.226 0.19-0.317 0-0.0442-0.0111-0.0828-0.0332-0.114-0.0644-0.0884-0.212-0.121-0.368-0.0185 0 0-0.795 0.53-0.799 0.53l-2.04 1.26c-3.31 2.06-6.24 3.62-9.23 4.9-2.77 1.18-5.3 2.01-8.2 2.71m-9.3 6.2c1.77 0.946 3.62 1.55 4.6 1.51 6.21-0.648 10.4-2.04 15.3-5.13 2.42-1.54 4.72-3.34 7.7-6.04 2.88-2.61 6-5.73 10.1-9.93l0.182-0.184c0.276-0.28 0.738-0.749 0.871-0.898 0.166-0.188 0.169-0.339 0.105-0.401-0.0681-0.0681-0.241-0.0571-0.447 0.133-0.184 0.168-0.943 0.81-1.15 0.977-1.43 1.15-2.86 2.33-3.82 3.17-3.91 3.46-6.98 5.91-9.95 7.95-2.8 1.89-5.24 3.25-7.9 4.39-5.17 2.15-9.8 3.04-16.5 3.16-0.466 0.0258-0.525 0.133-0.532 0.162-0.0202 0.0847 0.0773 0.365 1.43 1.14m7.82 5.1c1.83 1.26 3.65 1.95 4.52 1.74 5.22-1.78 8.75-4.09 13.5-8.85 2.34-2.37 4.55-4.94 7.83-8.85l1.11-1.33s4.54-5.4 4.54-5.41c2.13-2.5 4.72-5.49 8.5-9.48l0.701-0.766c0.182-0.199 0.199-0.379 0.125-0.457-0.0718-0.0773-0.247-0.07-0.477 0.114l-0.668 0.56-0.103 0.0902c-2.14 1.82-4.71 4.2-6.38 5.93l-1.89 1.99c-4.32 4.54-7.18 7.54-9.8 10.1-3.13 3.05-5.36 4.97-7.69 6.63-4.93 3.44-8.99 5.04-15 5.91-0.261 0.0515-0.409 0.144-0.438 0.28-0.0442 0.195 0.11 0.681 1.62 1.79m8.43 6.59c1.91 1.59 3.69 2.3 4.42 1.79 2.04-1.78 3.72-3.58 5.62-6.02 1.75-2.26 3.42-4.72 5.53-7.97l1.18-1.82c1.82-2.82 3.88-6.01 7.14-10.5 1.94-2.68 4.19-5.69 7.44-9.53 1.92-2.26 3.65-4.17 5.62-6.21 2.64-2.76 5.11-5.13 8-7.68 0.258-0.234 1.66-1.48 1.9-1.67 0.469-0.37 0.523-0.657 0.414-0.801-0.114-0.153-0.431-0.18-0.744 0.0423l-0.418 0.298-0.723 0.514c-4.03 2.91-8.39 6.8-10.7 9.18-4.14 4.29-6.93 7.52-9.33 10.4-2.27 2.7-3.97 4.83-5.62 6.89l-0.769 0.961c-3.2 4-5.31 6.64-7.47 9.08-2.33 2.61-4.21 4.4-6.26 5.98-2.15 1.66-4.23 2.88-6.77 3.96-0.188 0.103-0.298 0.25-0.32 0.442-0.07 0.574 0.611 1.54 1.91 2.7" fill="#01569a" stroke-width="1.89"/>
<text x="-8.4693527" y="-2.5286367" font-family="sans-serif" font-size="13.3px" style="line-height:1.25" xml:space="preserve"><tspan/></text><path d="m16.6 17.9q-1.31 0.639-2.73 0.959t-2.92 0.32q-3.41 0-5.4-1.9-1.99-1.91-1.99-5.17 0-3.3 2.03-5.19 2.03-1.89 5.55-1.89 1.36 0 2.6 0.256 1.25 0.256 2.36 0.758v2.82q-1.14-0.648-2.27-0.968-1.12-0.32-2.26-0.32-2.1 0-3.24 1.18-1.13 1.17-1.13 3.35 0 2.16 1.1 3.34 1.1 1.18 3.11 1.18 0.548 0 1.01-0.0639 0.475-0.073 0.849-0.219v-2.65h-2.15v-2.36h5.48z"/><path d="m19.7 5.25h3.52v11h6.17v2.66h-9.69z"/><path d="m41.1 5.68v2.89q-1.12-0.502-2.19-0.758-1.07-0.256-2.02-0.256-1.26 0-1.86 0.347-0.603 0.347-0.603 1.08 0 0.548 0.402 0.858 0.411 0.301 1.48 0.52l1.5 0.301q2.27 0.457 3.23 1.39 0.959 0.931 0.959 2.65 0 2.26-1.34 3.36-1.33 1.1-4.08 1.1-1.3 0-2.6-0.247t-2.61-0.73v-2.97q1.31 0.694 2.52 1.05 1.22 0.347 2.36 0.347 1.15 0 1.76-0.383 0.612-0.383 0.612-1.1 0-0.639-0.42-0.986-0.411-0.347-1.65-0.621l-1.36-0.301q-2.05-0.438-2.99-1.4-0.94-0.959-0.94-2.58 0-2.04 1.31-3.13 1.31-1.1 3.78-1.1 1.12 0 2.31 0.173 1.19 0.164 2.46 0.502z"/><path d="m3.59 24.8h4.51v17.5h-4.51z"/><path d="m25.5 34.3v7.99h-4.22v-6.12q0-1.7-0.082-2.34-0.0703-0.645-0.258-0.949-0.246-0.41-0.668-0.633-0.422-0.234-0.961-0.234-1.31 0-2.06 1.02-0.75 1.01-0.75 2.8v6.46h-4.2v-13.1h4.2v1.92q0.949-1.15 2.02-1.69 1.07-0.551 2.36-0.551 2.27 0 3.45 1.39 1.18 1.39 1.18 4.05z"/><path d="m27.8 29.1h4.2l3.27 9.07 3.26-9.07h4.21l-5.17 13.1h-4.61z"/><path d="m51.3 31.8q-1.39 0-2.13 1.01-0.727 0.996-0.727 2.88 0 1.89 0.727 2.89 0.738 0.996 2.13 0.996 1.37 0 2.1-0.996 0.727-1.01 0.727-2.89 0-1.89-0.727-2.88-0.727-1.01-2.1-1.01zm0-3q3.39 0 5.29 1.83 1.91 1.83 1.91 5.06t-1.91 5.06q-1.9 1.83-5.29 1.83-3.4 0-5.32-1.83-1.91-1.83-1.91-5.06t1.91-5.06q1.92-1.83 5.32-1.83z"/><path d="m61.6 29.1h4.2v13.1h-4.2zm0-5.11h4.2v3.42h-4.2z"/><path d="m80.4 29.5v3.42q-0.855-0.586-1.72-0.867-0.855-0.281-1.78-0.281-1.76 0-2.74 1.03-0.973 1.02-0.973 2.86 0 1.84 0.973 2.87 0.984 1.02 2.74 1.02 0.984 0 1.86-0.293 0.891-0.293 1.64-0.867v3.43q-0.984 0.363-2 0.539-1.01 0.188-2.03 0.188-3.55 0-5.55-1.82-2-1.83-2-5.07 0-3.25 2-5.06 2-1.83 5.55-1.83 1.03 0 2.03 0.188 1.01 0.176 2 0.539z"/><path d="m97.1 35.7v1.2h-9.81q0.152 1.48 1.07 2.21 0.914 0.738 2.55 0.738 1.32 0 2.71-0.387 1.39-0.398 2.86-1.2v3.23q-1.49 0.562-2.98 0.844-1.49 0.293-2.98 0.293-3.56 0-5.54-1.8-1.97-1.82-1.97-5.09 0-3.21 1.93-5.05 1.95-1.84 5.34-1.84 3.09 0 4.95 1.86 1.86 1.86 1.86 4.98zm-4.31-1.39q0-1.2-0.703-1.92-0.691-0.738-1.82-0.738-1.22 0-1.98 0.691-0.762 0.68-0.949 1.97z"/><path d="m3.59 49h5.83q2.6 0 3.99 1.16 1.4 1.15 1.4 3.29 0 2.15-1.4 3.31-1.39 1.15-3.99 1.15h-2.32v4.73h-3.52zm3.52 2.55v3.81h1.94q1.02 0 1.58-0.493 0.557-0.502 0.557-1.42t-0.557-1.41q-0.557-0.493-1.58-0.493z"/><path d="m21.2 58.1q-1.02 0-1.54 0.347-0.511 0.347-0.511 1.02 0 0.621 0.411 0.977 0.42 0.347 1.16 0.347 0.922 0 1.55-0.657 0.63-0.667 0.63-1.66v-0.374zm4.99-1.23v5.83h-3.3v-1.52q-0.657 0.931-1.48 1.36-0.822 0.42-2 0.42-1.59 0-2.58-0.922-0.986-0.931-0.986-2.41 0-1.8 1.23-2.64 1.24-0.84 3.89-0.84h1.93v-0.256q0-0.776-0.612-1.13-0.612-0.365-1.91-0.365-1.05 0-1.95 0.21-0.904 0.21-1.68 0.63v-2.49q1.05-0.256 2.11-0.383 1.06-0.137 2.12-0.137 2.77 0 3.99 1.1 1.23 1.09 1.23 3.54z"/><path d="m36.9 55.2q-0.429-0.201-0.858-0.292-0.42-0.1-0.849-0.1-1.26 0-1.94 0.813-0.676 0.804-0.676 2.31v4.71h-3.27v-10.2h3.27v1.68q0.63-1 1.44-1.46 0.822-0.466 1.96-0.466 0.164 0 0.356 0.0183 0.192 0.0091 0.557 0.0548z"/><path d="m46.5 52.8v2.48q-1.05-0.438-2.03-0.657-0.977-0.219-1.84-0.219-0.931 0-1.39 0.237-0.447 0.228-0.447 0.712 0 0.393 0.338 0.603 0.347 0.21 1.23 0.31l0.575 0.0822q2.51 0.32 3.38 1.05t0.867 2.29q0 1.63-1.21 2.46-1.21 0.822-3.6 0.822-1.01 0-2.1-0.164-1.08-0.155-2.22-0.475v-2.48q0.977 0.475 2 0.712 1.03 0.237 2.09 0.237 0.959 0 1.44-0.265 0.484-0.265 0.484-0.785 0-0.438-0.338-0.648-0.329-0.219-1.32-0.338l-0.575-0.073q-2.18-0.274-3.06-1.01-0.877-0.74-0.877-2.25 0-1.63 1.11-2.41t3.41-0.785q0.904 0 1.9 0.137 0.995 0.137 2.16 0.429z"/><path d="m59.8 57.5v0.931h-7.64q0.119 1.15 0.831 1.73 0.712 0.575 1.99 0.575 1.03 0 2.11-0.301 1.09-0.31 2.23-0.931v2.52q-1.16 0.438-2.32 0.657-1.16 0.228-2.32 0.228-2.78 0-4.32-1.41-1.53-1.42-1.53-3.96 0-2.5 1.51-3.94 1.52-1.43 4.16-1.43 2.41 0 3.85 1.45 1.45 1.45 1.45 3.88zm-3.36-1.09q0-0.931-0.548-1.5-0.539-0.575-1.42-0.575-0.95 0-1.54 0.539-0.594 0.53-0.74 1.53z"/><path d="m69.9 55.2q-0.429-0.201-0.858-0.292-0.42-0.1-0.849-0.1-1.26 0-1.94 0.813-0.676 0.804-0.676 2.31v4.71h-3.27v-10.2h3.27v1.68q0.63-1 1.44-1.46 0.822-0.466 1.96-0.466 0.164 0 0.356 0.0183 0.192 0.0091 0.557 0.0548z"/></svg>
